<mxfile host="app.diagrams.net" modified="2023-10-02T07:03:21.218Z" agent="Mozilla/5.0 (Windows NT 10.0; Win64; x64) AppleWebKit/537.36 (KHTML, like Gecko) Chrome/117.0.0.0 Safari/537.36" etag="AIoZhg6zKCU19SFm7V5F" version="22.0.0" type="device">
  <diagram id="R2lEEEUBdFMjLlhIrx00" name="Page-1">
    <mxGraphModel dx="880" dy="478" grid="1" gridSize="10" guides="1" tooltips="1" connect="1" arrows="1" fold="1" page="1" pageScale="1" pageWidth="850" pageHeight="1100" math="0" shadow="0" extFonts="Permanent Marker^https://fonts.googleapis.com/css?family=Permanent+Marker">
      <root>
        <mxCell id="0" />
        <mxCell id="1" parent="0" />
        <mxCell id="va-3f9SvGA3Kt6a09a1O-2" value="Passenger" style="whiteSpace=wrap;html=1;align=center;" vertex="1" parent="1">
          <mxGeometry y="220" width="100" height="40" as="geometry" />
        </mxCell>
        <mxCell id="va-3f9SvGA3Kt6a09a1O-3" value="Schedule" style="whiteSpace=wrap;html=1;align=center;" vertex="1" parent="1">
          <mxGeometry x="280" y="220" width="100" height="40" as="geometry" />
        </mxCell>
        <mxCell id="va-3f9SvGA3Kt6a09a1O-4" value="Cargo" style="whiteSpace=wrap;html=1;align=center;" vertex="1" parent="1">
          <mxGeometry x="130" y="220" width="100" height="40" as="geometry" />
        </mxCell>
        <mxCell id="va-3f9SvGA3Kt6a09a1O-5" value="Aircraft Specification" style="whiteSpace=wrap;html=1;align=center;" vertex="1" parent="1">
          <mxGeometry x="440" y="220" width="100" height="40" as="geometry" />
        </mxCell>
        <mxCell id="va-3f9SvGA3Kt6a09a1O-6" value="Airline Details" style="whiteSpace=wrap;html=1;align=center;" vertex="1" parent="1">
          <mxGeometry x="600" y="220" width="100" height="40" as="geometry" />
        </mxCell>
        <mxCell id="va-3f9SvGA3Kt6a09a1O-7" value="Crew Members" style="whiteSpace=wrap;html=1;align=center;" vertex="1" parent="1">
          <mxGeometry x="750" y="220" width="100" height="40" as="geometry" />
        </mxCell>
        <mxCell id="va-3f9SvGA3Kt6a09a1O-15" value="" style="edgeStyle=orthogonalEdgeStyle;rounded=0;orthogonalLoop=1;jettySize=auto;html=1;" edge="1" parent="1" source="va-3f9SvGA3Kt6a09a1O-9" target="va-3f9SvGA3Kt6a09a1O-13">
          <mxGeometry relative="1" as="geometry" />
        </mxCell>
        <mxCell id="va-3f9SvGA3Kt6a09a1O-9" value="name&lt;br&gt;" style="ellipse;whiteSpace=wrap;html=1;align=center;" vertex="1" parent="1">
          <mxGeometry y="40" width="100" height="40" as="geometry" />
        </mxCell>
        <mxCell id="va-3f9SvGA3Kt6a09a1O-16" value="" style="edgeStyle=orthogonalEdgeStyle;rounded=0;orthogonalLoop=1;jettySize=auto;html=1;" edge="1" parent="1" source="va-3f9SvGA3Kt6a09a1O-10" target="va-3f9SvGA3Kt6a09a1O-2">
          <mxGeometry relative="1" as="geometry" />
        </mxCell>
        <mxCell id="va-3f9SvGA3Kt6a09a1O-10" value="Passport" style="ellipse;whiteSpace=wrap;html=1;align=center;fontStyle=4;" vertex="1" parent="1">
          <mxGeometry y="160" width="100" height="40" as="geometry" />
        </mxCell>
        <mxCell id="va-3f9SvGA3Kt6a09a1O-14" value="" style="edgeStyle=orthogonalEdgeStyle;rounded=0;orthogonalLoop=1;jettySize=auto;html=1;" edge="1" parent="1" source="va-3f9SvGA3Kt6a09a1O-13" target="va-3f9SvGA3Kt6a09a1O-10">
          <mxGeometry relative="1" as="geometry" />
        </mxCell>
        <mxCell id="va-3f9SvGA3Kt6a09a1O-13" value="ID" style="ellipse;whiteSpace=wrap;html=1;align=center;" vertex="1" parent="1">
          <mxGeometry y="100" width="100" height="40" as="geometry" />
        </mxCell>
        <mxCell id="va-3f9SvGA3Kt6a09a1O-23" style="edgeStyle=orthogonalEdgeStyle;rounded=0;orthogonalLoop=1;jettySize=auto;html=1;" edge="1" parent="1" source="va-3f9SvGA3Kt6a09a1O-17">
          <mxGeometry relative="1" as="geometry">
            <mxPoint x="180" y="210" as="targetPoint" />
          </mxGeometry>
        </mxCell>
        <mxCell id="va-3f9SvGA3Kt6a09a1O-17" value="Tracking ID" style="ellipse;whiteSpace=wrap;html=1;align=center;fontStyle=4;" vertex="1" parent="1">
          <mxGeometry x="130" y="150" width="100" height="40" as="geometry" />
        </mxCell>
        <mxCell id="va-3f9SvGA3Kt6a09a1O-24" style="edgeStyle=orthogonalEdgeStyle;rounded=0;orthogonalLoop=1;jettySize=auto;html=1;exitX=0.5;exitY=0;exitDx=0;exitDy=0;entryX=0.5;entryY=1;entryDx=0;entryDy=0;" edge="1" parent="1" source="va-3f9SvGA3Kt6a09a1O-19" target="va-3f9SvGA3Kt6a09a1O-4">
          <mxGeometry relative="1" as="geometry" />
        </mxCell>
        <mxCell id="va-3f9SvGA3Kt6a09a1O-19" value="weight" style="ellipse;whiteSpace=wrap;html=1;align=center;" vertex="1" parent="1">
          <mxGeometry x="130" y="290" width="100" height="40" as="geometry" />
        </mxCell>
      </root>
    </mxGraphModel>
  </diagram>
</mxfile>
